<svg xmlns="http://www.w3.org/2000/svg" viewBox="0 0 100 100" fill="currentColor" role="img" aria-label="Anthropic mark"><g><path d="M 56.50 50.00 L 50.00 4.00 L 43.50 50.00 Z"></path><path d="M 43.50 50.00 L 50.00 96.00 L 56.50 50.00 Z"></path><path d="M 50.00 55.50 L 90.00 50.00 L 50.00 44.50 Z"></path><path d="M 50.00 44.50 L 10.00 50.00 L 50.00 55.50 Z"></path><path d="M 53.18 53.18 L 74.04 25.96 L 46.82 46.82 Z"></path><path d="M 53.18 46.82 L 25.96 25.96 L 46.82 53.18 Z"></path><path d="M 46.82 46.82 L 25.96 74.04 L 53.18 53.18 Z"></path><path d="M 46.82 53.18 L 74.04 74.04 L 53.18 46.82 Z"></path><path d="M 51.34 53.23 L 74.02 40.05 L 48.66 46.77 Z"></path><path d="M 53.23 51.34 L 59.95 25.98 L 46.77 48.66 Z"></path><path d="M 53.23 48.66 L 40.05 25.98 L 46.77 51.34 Z"></path><path d="M 51.34 46.77 L 25.98 40.05 L 48.66 53.23 Z"></path><path d="M 48.66 46.77 L 25.98 59.95 L 51.34 53.23 Z"></path><path d="M 46.77 48.66 L 40.05 74.02 L 53.23 51.34 Z"></path><path d="M 46.77 51.34 L 59.95 74.02 L 53.23 48.66 Z"></path><path d="M 48.66 53.23 L 74.02 59.95 L 51.34 46.77 Z"></path><circle cx="50" cy="50" r="5.5"></circle></g></svg>